<?xml version="1.0" standalone="no"?>
<!DOCTYPE svg PUBLIC "-//W3C//DTD SVG 20010904//EN"
 "http://www.w3.org/TR/2001/REC-SVG-20010904/DTD/svg10.dtd">
<svg version="1.0" xmlns="http://www.w3.org/2000/svg"
 width="720.000000pt" height="720.000000pt" viewBox="0 0 720.000000 720.000000"
 preserveAspectRatio="xMidYMid meet">
<metadata>
Created by potrace 1.11, written by Peter Selinger 2001-2013
</metadata>
<g transform="translate(0.000000,720.000000) scale(0.100000,-0.100000)"
fill="#000000" stroke="none">
<path d="M4378 7183 c-13 -15 -228 -491 -607 -1348 l-67 -150 -499 -5 c-369
-4 -506 -8 -521 -17 -33 -19 -47 -68 -30 -108 11 -26 24 -36 53 -45 26 -8 197
-10 561 -8 l524 3 21 25 c12 14 143 299 292 633 148 334 272 607 275 607 4 0
23 -190 44 -422 20 -233 50 -569 66 -748 16 -179 45 -505 65 -725 144 -1632
144 -1623 157 -1645 27 -43 84 -51 123 -17 27 23 31 35 85 287 16 74 48 218
70 320 22 102 54 246 70 320 16 74 47 216 69 315 22 99 85 389 140 645 56 256
105 474 110 485 l8 20 6 -20 c3 -11 42 -177 87 -369 62 -272 85 -355 102 -373
28 -30 79 -31 111 0 17 15 75 149 182 417 86 217 162 401 167 408 8 9 122 12
507 12 l498 0 21 23 c31 33 29 87 -4 118 l-26 24 -544 0 -543 0 -22 -22 c-12
-12 -75 -153 -139 -315 -65 -161 -122 -293 -127 -292 -4 0 -36 121 -70 270
-132 570 -132 572 -160 594 -31 24 -54 25 -93 5 -33 -17 -36 -25 -81 -235 -59
-272 -89 -409 -129 -590 -22 -102 -54 -246 -70 -320 -16 -74 -47 -216 -69
-315 -22 -99 -68 -309 -102 -467 -34 -158 -66 -285 -69 -283 -4 3 -10 46 -14
97 -6 87 -26 311 -111 1258 -19 212 -53 594 -75 850 -94 1057 -96 1079 -115
1100 -24 27 -105 28 -127 3z"/>
<path d="M4048 4732 c-15 -9 -181 -213 -369 -452 -187 -239 -347 -441 -354
-449 -11 -11 -13 -3 -13 45 0 79 -50 491 -64 528 -15 37 -63 66 -111 66 -45 0
-91 -39 -103 -85 -11 -44 91 -881 111 -911 9 -14 31 -32 49 -41 31 -14 59 -12
466 36 269 32 443 57 461 66 58 31 75 119 32 168 -44 49 -63 50 -337 17 -140
-17 -267 -35 -282 -40 -15 -6 -29 -9 -31 -6 -2 2 148 197 333 433 186 235 348
443 361 462 35 52 31 105 -11 147 -27 27 -42 34 -72 34 -22 0 -51 -8 -66 -18z"/>
<path d="M2810 3399 c-217 -44 -475 -95 -1160 -229 -256 -50 -485 -96 -510
-102 -34 -9 -60 -27 -106 -72 -100 -100 -94 -46 -94 -880 0 -780 -2 -812 -54
-900 -52 -88 -143 -147 -271 -176 -143 -32 -292 -125 -372 -234 -95 -128 -128
-229 -121 -371 7 -129 34 -193 117 -276 94 -94 147 -114 306 -114 100 0 130 4
179 23 174 65 304 194 382 379 l29 68 3 851 3 851 307 61 c169 33 494 97 722
142 228 45 504 99 613 121 109 21 200 39 203 39 10 0 3 -870 -7 -924 -22 -119
-83 -206 -181 -257 -20 -10 -80 -30 -133 -44 -135 -35 -215 -77 -304 -161 -82
-78 -134 -154 -164 -243 -129 -378 161 -688 541 -578 217 63 382 239 438 467
20 84 20 2479 0 2518 -47 91 -96 96 -366 41z"/>
</g>
</svg>
